# xmcd CD database file
#
# Track frame offsets:
#	150
#	34201
#	62993
#	93595
#	126297
#	149992
#	185381
#
# Disc length: 2970 seconds
#
# Revision: 0
# Processed by: cddbd v1.5PL3 Copyright (c) Steve Scherf et al.
# Submitted via: CDex 1.51
#
DISCID=6f0b9807
DTITLE=Phil Woods - Chasin' The Bird
DYEAR=1997
DGENRE=Jazz
TTITLE0=Chasin' The Bird
TTITLE1=Israel
TTITLE2=Everything Happens to Me
TTITLE3=Autumn Thieves
TTITLE4=Cherlies Wig
TTITLE5=Tribute to Blue
TTITLE6=Clinicology
EXTD=YEAR: 1997
EXTT0=
EXTT1=
EXTT2=
EXTT3=
EXTT4=
EXTT5=
EXTT6=
PLAYORDER=
